<?xml version="1.0" encoding="UTF-8"?>
<svg width="400px" height="458px" viewBox="0 0 400 458" version="1.1" xmlns="http://www.w3.org/2000/svg" xmlns:xlink="http://www.w3.org/1999/xlink">
    <!-- Generator: Sketch 49.3 (51167) - http://www.bohemiancoding.com/sketch -->
    <title>mn</title>
    <desc>Created with Sketch.</desc>
    <defs></defs>
    <g id="Page-1" stroke="none" stroke-width="1" fill="none" fill-rule="evenodd">
        <g id="mn" fill="#ED8B8E" fill-rule="nonzero">
            <path d="M2.74560679,81.8191177 C2.36122905,82.2419224 2.66873124,83.1259686 2.55341792,83.7793941 C2.47654237,84.4712563 2.16904018,84.9324978 2.01528908,85.5859233 C1.82310021,86.200912 1.86153799,86.8927742 1.86153799,87.5461997 C1.86153799,88.2380619 1.78466244,88.776177 1.63091134,89.5449129 C1.4002847,91.005511 2.09216463,91.9664307 2.39966682,93.2348449 C2.4381046,93.4270288 2.4381046,94.0035807 2.55341792,94.1957647 C2.70716901,94.4648222 2.89935788,94.5416958 3.0146712,94.7723166 C3.47592449,95.5410524 3.66811336,95.4641788 3.78342668,96.540409 C3.82186446,97.3091448 3.74498891,97.7319495 4.12936665,98.385375 C4.51374439,99.0388005 4.9365599,99.2309844 5.09031099,100.153467 C5.16718654,100.84533 5.05187322,101.575629 5.09031099,102.267491 C5.09031099,102.613422 5.01343545,103.036227 5.12874877,103.305284 C5.20562432,103.535905 5.70531538,103.689652 5.74375315,103.920273 C5.97437979,104.573698 5.6668776,104.765882 5.39781319,105.496181 C5.16718654,106.303354 5.24406209,106.687722 5.55156428,107.494895 C5.74375315,108.03301 5.93594202,108.494251 6.35875753,108.878619 C6.93532414,109.455171 7.5887663,109.22455 7.74251739,110.108597 C7.78095517,110.454528 7.47345298,111.069516 7.39657743,111.377011 C7.35813965,111.953563 7.55032852,112.33793 7.5887663,112.799172 C7.78095517,114.029149 7.93470626,114.106023 8.66502397,115.066943 C9.28002835,115.835679 9.70284386,116.835035 9.54909277,117.680645 C9.39534167,118.44938 8.78033729,119.564047 10.1640971,119.794668 C10.2025349,120.25591 10.1256594,120.832461 10.3178482,121.255266 C10.4715993,121.524324 11.0097282,121.831818 11.201917,122.139312 C11.7400459,122.984922 11.5862948,124.176462 11.7400459,125.137382 C12.0859858,126.943911 13.3544324,128.327636 13.3928702,130.287912 C13.3928702,131.364142 13.3928702,132.248189 13.8541234,133.170672 C14.276939,133.939408 15.0841322,134.477523 15.1610078,135.438442 C15.1994455,135.7075 15.12257,136.66842 14.9303811,136.860604 C14.5460034,137.437156 14.1616256,136.822167 14.0847501,137.74465 C14.0078745,138.628696 14.9303811,139.243685 14.7381922,140.396789 C14.6613167,140.396789 14.5460034,140.435225 14.4691278,140.435225 C14.276939,141.088651 14.6997545,141.588329 14.8150678,142.203318 C14.9688189,142.972054 14.7381922,143.394858 14.3922523,144.009847 C14.0078745,144.778583 13.8156857,144.855456 13.8541234,145.624192 C13.8925612,146.239181 14.2000634,146.777296 14.2385012,147.430721 C14.276939,148.007273 13.8925612,148.814446 14.0847501,149.237251 C14.2385012,149.660055 14.9688189,149.929113 15.1610078,150.428791 C15.6991366,151.658769 14.9303811,153.08093 15.12257,154.310907 C15.0841322,154.27247 15.0456944,154.234034 14.9688189,154.234034 C14.3538145,159.499874 15.3147589,164.688841 14.9303811,169.916245 C14.8535056,171.299969 14.9688189,172.645257 14.7381922,174.028981 C14.5460034,175.258959 14.3538145,176.450499 14.3538145,177.75735 C14.3538145,178.372339 14.5075656,179.141075 14.3153767,179.717627 C14.2385012,179.986684 13.7772479,180.294179 13.7772479,180.678546 C13.8156857,181.101351 14.2000634,181.062914 14.3153767,181.255098 C14.5075656,181.83165 14.3922523,185.137214 15.7375744,184.291605 C15.968201,184.752846 15.9297632,185.252525 16.1219521,185.713766 C16.4678921,186.405628 16.6600809,186.251881 17.1982098,186.597812 C18.5819696,187.481859 17.6210253,188.019974 17.7363386,189.442135 C17.5441497,189.403698 17.2750853,189.519009 17.0828965,189.480572 C17.0060209,190.326181 17.0444587,190.672112 16.6600809,191.363975 C16.4678921,191.709906 16.1988277,191.633032 16.0450766,192.13271 C15.8913255,192.517078 16.0066388,192.97832 16.0066388,193.362688 C16.0066388,193.708619 16.0835143,194.131424 16.0066388,194.438918 C15.9297632,194.861723 15.5838233,194.977033 15.4685099,195.207654 C15.12257,196.014826 15.3916344,196.437631 15.5453855,197.206367 C16.1603899,199.704758 16.2372654,203.202507 15.4685099,205.739335 C15.0456944,207.046186 13.9694368,208.237726 14.3922523,209.621451 C14.8150678,210.928302 15.5453855,212.004532 16.1988277,213.157636 C17.6210253,215.61759 16.2757032,219.115338 17.5825875,221.575293 C17.8516519,222.113408 18.1975919,221.998098 18.5435319,222.420902 C18.8894718,222.843707 18.7741585,223.381822 18.8125963,223.881501 C19.0047851,225.034604 18.9663474,226.149271 19.7735406,227.110191 C20.4654206,227.994237 20.7729227,228.378605 21.0804249,229.493272 C21.4263649,230.531066 22.5026226,231.261365 22.3873092,232.491342 C22.9638759,232.721963 23.8095069,233.260078 24.1554468,233.759756 C24.5398246,234.336308 24.4245113,236.258148 24.6935757,236.258148 L24.5013868,238.064677 C24.5013868,238.14155 24.2323224,239.140907 24.1554468,239.525275 C24.1554468,240.217137 24.5398246,240.716815 24.5013868,241.485551 C24.462949,242.177413 23.9248202,242.484908 24.2707602,243.29208 C24.5398246,243.945506 25.0779534,243.945506 25.2317045,244.714242 C25.3085801,245.367667 25.0010779,245.944219 25.0779534,246.674518 C25.154829,247.327944 25.4238934,247.904495 25.4238934,248.673231 C25.4238934,250.24914 25.8082711,251.555991 25.9620222,252.939715 C26.1157733,254.592497 25.154829,255.438107 24.8857646,256.860268 C24.6551379,258.128682 24.808889,260.050522 24.8857646,261.318936 C25.154829,264.201695 25.3085801,267.161328 24.8857646,270.082524 C24.462949,273.080594 23.0791892,274.694939 21.3879271,277.078021 C20.5422961,278.269561 19.8119784,279.499538 18.8125963,280.575769 C17.8132142,281.651999 16.3910165,282.266987 15.0841322,282.95885 C13.1238057,283.919769 9.74128164,285.572552 9.2031528,287.801885 C8.85721284,289.18561 8.78033729,290.184967 9.54909277,291.33807 C10.1640971,292.337427 10.9328526,293.1446 11.5094192,294.182393 C12.6625525,296.296416 12.8931791,298.52575 14.0847501,300.639774 C14.6613167,301.677567 15.4685099,302.60005 16.1988277,303.44566 C16.8907076,304.252832 17.505712,305.48281 18.4666563,306.059362 C19.5044762,306.635914 20.9266738,306.136235 22.0798071,306.520603 C23.117627,306.904971 23.963258,307.904328 24.9242023,308.48088 C26.0773355,309.134305 26.8845288,309.55711 27.8070354,310.556466 C28.4604775,311.209892 29.1139197,312.593616 29.575173,312.939547 L29.7673618,314.169525 L24.7320135,454.963493 L321.08725,458 C321.08725,458 319.472864,455.309425 319.665053,453.733516 C319.857241,452.119171 318.973173,450.889193 318.242855,447.660503 C317.512537,444.431812 319.126924,440.895628 319.126924,438.397236 C319.126924,435.898845 315.39846,428.749601 312.669378,425.17498 C309.978734,421.638795 303.905565,418.025736 300.676792,417.14169 C297.448019,416.257644 297.25583,414.105184 293.911744,411.414608 C290.490782,408.724033 290.87516,409.108401 287.454198,406.95594 C284.033236,404.841917 282.611039,403.035388 282.611039,400.882927 C282.611039,398.768904 279.920394,398.192352 280.112583,395.540213 C280.304772,392.849638 278.882574,391.081545 273.655037,388.967522 C268.504376,386.853498 262.969336,385.431337 261.35495,383.24044 C259.740563,381.049543 260.470881,376.475564 256.896168,376.091196 C253.359893,375.706829 248.132355,375.706829 245.826089,374.861219 C243.519822,373.977173 244.211702,372.170644 242.405127,371.824713 C240.598552,371.440345 242.212938,369.326321 239.368543,366.981677 C236.524148,364.675469 231.488799,361.946457 231.181297,361.446779 C230.835357,360.908664 230.643168,359.486502 232.065366,356.411559 C233.487563,353.375052 234.179443,351.376339 233.295375,349.954178 C232.411306,348.532017 233.833503,348.339833 233.833503,346.533303 C233.833503,344.726774 234.025692,341.882452 232.603495,339.576244 C231.181297,337.270037 230.489417,335.117576 232.219117,333.849162 C234.025692,332.619185 234.333195,331.735139 234.179443,329.390494 C234.025692,327.04585 232.949435,326.699919 233.487563,325.12401 C234.025692,323.509665 232.795684,320.088791 234.179443,318.166951 C235.601641,316.206675 236.677899,317.282905 237.023839,315.66856 C237.408216,314.054214 236.48571,313.170168 237.907907,311.940191 C239.330105,310.710213 240.406363,308.903684 240.021985,307.289339 C239.637607,305.674994 237.907907,305.48281 236.793212,303.753154 C235.716954,301.946625 234.832886,300.024785 234.486946,297.872325 C234.102568,295.758301 233.602877,296.642348 231.065984,296.796095 C228.567528,296.949842 226.607202,298.756371 226.607202,292.683358 C226.607202,286.610345 226.607202,285.918483 228.413777,284.650069 C230.220353,283.381654 232.872559,281.421378 233.256937,279.307354 C233.641315,277.193331 234.141006,273.580272 235.755392,271.965927 C237.369779,270.351582 242.020749,267.315075 243.442947,267.315075 C244.865145,267.315075 244.519205,265.201052 246.287342,264.816684 C248.093918,264.432316 248.593609,266.046661 249.516115,264.816684 C250.400184,263.586707 250.207995,261.395809 252.36051,261.780177 C254.474588,262.164545 255.781472,263.279212 256.281163,261.741741 C256.819292,260.165832 256.973043,258.205556 257.89555,258.39774 C258.818056,258.589924 258.779619,258.589924 258.779619,258.589924 L258.58743,211.812348 L262.854023,211.812348 C262.854023,211.812348 264.660598,210.390187 264.814349,209.698324 C264.9681,209.006462 264.429971,207.891795 265.890607,207.007749 C267.312805,206.123703 268.927191,205.931519 269.311569,204.317173 C269.695946,202.702828 267.351242,202.20315 269.849698,200.204437 C272.348153,198.24416 281.457905,193.247377 284.302301,190.748986 C287.146696,188.250594 298.024586,177.52673 300.02335,176.104568 C302.022114,174.682407 305.366201,171.6459 307.172776,169.531877 C308.979351,167.417853 316.820657,158.846449 317.704726,157.424287 C318.588795,156.002126 326.084161,146.738859 330.197003,143.817663 C334.309844,140.97334 347.532439,130.787591 351.799032,129.173245 C356.065624,127.5589 365.213815,123.638347 367.327892,123.292416 C369.44197,122.946485 371.786674,122.216186 372.862932,121.485887 C373.939189,120.794025 378.743911,118.44938 380.358298,117.757518 C381.972684,117.065656 394.080583,110.262344 396.271536,107.956136 C398.385613,105.649929 400,104.419951 400,104.419951 C400,104.419951 397.155605,105.303998 395.15684,104.419951 C393.158076,103.535905 392.466196,103.189974 391.043999,103.343721 C389.621801,103.535905 388.929921,105.649929 386.393028,105.842113 C383.894573,106.034297 382.126435,105.649929 381.050177,104.419951 C379.97392,103.189974 379.089851,100.691583 377.821404,99.3847316 C376.591396,98.1547542 372.478554,97.5782024 369.634159,97.5782024 C366.789763,97.5782024 363.90693,97.0400873 362.138793,97.5782024 C360.332217,98.1163175 358.602518,99.3847316 357.487822,98.6544325 C356.373127,97.9241335 355.373745,96.5788458 353.02904,97.3475816 C350.722774,98.1163175 349.608078,99.1925476 349.108387,97.9625703 C348.570259,96.7325929 348.416507,95.9638571 346.263992,97.1553977 C344.149915,98.3469382 340.728953,100.653146 339.498944,99.5769155 C338.268935,98.5006854 336.270171,96.540409 337.192677,95.3104316 C338.115184,94.0804543 335.578291,92.6198562 334.886411,91.3898789 C334.194531,90.1599015 334.348282,87.123395 332.772333,87.4693261 C331.157947,87.8152572 325.276968,90.3136487 323.124452,91.73581 C320.933499,93.1579713 314.745017,99.0772373 312.746253,100.115031 C310.785927,101.191261 311.131867,101.92156 308.47966,101.729376 C305.789016,101.537192 304.020879,104.765882 302.752432,103.343721 C301.522423,101.92156 296.487075,104.227767 296.179573,102.113744 C295.795195,99.9997203 291.144224,98.193191 291.144224,98.193191 C291.144224,98.193191 287.723262,97.5013288 288.10764,94.4648222 C288.492018,91.4283157 287.569511,91.7742468 287.569511,91.7742468 L280.804463,91.3898789 L278.844137,89.4296025 C278.844137,89.4296025 276.730059,89.8139704 274.923484,88.3533723 C273.116908,86.931211 271.694711,83.8947045 271.694711,81.8959913 C271.694711,79.8972781 270.272513,79.7819677 268.273749,79.7819677 C266.274985,79.7819677 263.58434,80.47383 260.394005,81.0119451 C257.165232,81.5500601 255.935223,82.9722214 256.85773,85.1246818 C257.780237,87.2771421 260.086503,88.8530506 258.818056,89.2374185 C257.588048,89.6217864 255.589283,91.1976949 254.359275,90.4673959 C253.129266,89.7755336 248.632046,83.1259686 248.093918,81.3578762 C247.555789,79.551347 248.977986,78.1291857 248.785797,76.5148404 C248.593609,74.9004951 247.70954,72.5942876 243.942638,73.4783338 C240.214174,74.3623801 237.677281,75.2848631 236.601023,74.0164489 C235.524765,72.7864716 234.025692,68.3278037 236.408834,69.1734132 C239.829796,70.4033905 242.482003,66.4828377 238.522912,65.6372283 C234.602259,64.7531821 232.641932,65.6372283 228.875031,63.3310208 C225.108129,61.0248133 222.609673,59.2182841 217.459012,59.602652 C212.30835,59.9870199 209.771457,59.602652 209.079577,58.5264218 C208.387697,57.4501916 205.351113,57.4501916 203.198598,58.5264218 C201.08452,59.602652 201.968589,61.3707444 200.162014,60.8326293 C198.355438,60.2945142 196.049172,61.3707444 195.895421,62.4469746 C195.703232,63.5232047 195.511043,65.6756651 195.088227,65.8678491 C194.665412,66.060033 190.936948,68.3662405 188.400055,67.8281254 C185.901599,67.2900104 186.093788,68.0203094 183.556895,68.2124934 C181.05844,68.4046773 177.099349,68.4046773 177.291538,66.252217 C177.483727,64.1381934 179.098113,63.2157104 177.483727,60.7173189 C175.86934,58.2189275 172.333065,59.1029737 168.220223,58.6032954 C164.107382,58.0651803 158.226402,58.4111114 156.227638,57.7961228 C154.267311,57.1811341 154.421063,55.1824209 153.729183,53.9524436 C153.037303,52.7224662 149.46259,51.646236 146.233817,52.3380983 C143.005044,53.0299606 146.233817,54.8364898 143.005044,54.2983747 C139.776271,53.7602596 141.198468,54.5289954 137.662193,52.1074776 C134.125918,49.6859597 130.897145,47.8794304 131.396836,43.9588777 C131.896527,40.0383249 133.895291,39.6923938 132.473094,35.771841 C131.050896,31.8512882 129.974638,25.24016 128.74463,21.3196072 C127.514621,17.3990545 126.784303,14.5547319 126.246174,10.4419951 C125.708045,6.3292584 126.246174,4.71491314 126.246174,4.71491314 C126.246174,4.71491314 123.632406,3.4849358 120.595822,1.67840658 C117.559237,-0.12812264 116.675169,1.14029149 115.060782,1.67840658 C113.446396,2.21652167 111.332318,2.33183204 110.217623,0.717486782 C109.102927,-0.896858478 108.987614,0.717486782 108.987614,0.717486782 L108.065107,29.122276 L0.247151484,25.24016 C0.247151484,25.24016 -0.636917316,29.3528967 0.939031414,33.2734495 C2.51498014,37.1940023 2.55341792,38.1164853 2.01528908,39.0005315 C1.47716025,39.8845777 2.20747795,41.498923 3.24529785,44.0357513 C4.28311774,46.5725795 5.55156428,49.9165804 5.93594202,51.1849945 C6.32031976,52.4149719 4.32155552,54.605869 3.62967559,56.5277086 C2.93779566,58.487985 1.13122028,58.3342378 2.39966682,61.1785604 C3.62967559,64.022883 2.59185569,64.215067 3.09154675,66.3290906 C3.62967559,68.4431141 4.32155552,70.0574594 3.47592449,71.1721263 C2.63029347,72.2483565 1.51559802,73.2861499 1.51559802,73.2861499 C1.51559802,73.2861499 2.74560679,75.5923574 3.12998453,77.9370017 L2.74560679,81.8191177 Z" id="Shape"></path>
        </g>
    </g>
</svg>