<svg width="50px" height="49px" viewBox="0 0 50 49" version="1.1" xmlns="http://www.w3.org/2000/svg" xmlns:xlink="http://www.w3.org/1999/xlink">
    <g id="Page-1" stroke="none" stroke-width="1" fill="none" fill-rule="evenodd">
        <g id="github" fill="#ED8B8E" fill-rule="nonzero">
            <path d="M25,0 C11.1938477,0 0,11.1694118 0,24.9454256 C0,35.9686727 7.1625,45.3171171 17.0974609,48.6149316 C18.347168,48.8433382 18.803418,48.0729046 18.803418,47.4151639 C18.803418,46.8213458 18.7805176,44.8542626 18.7683105,42.771417 C11.8164062,44.2787151 10.3469727,39.8298543 10.3469727,39.8298543 C9.20869141,36.9491936 7.57138672,36.1818295 7.57138672,36.1818295 C5.29936523,34.6349207 7.74375,34.6653717 7.74375,34.6653717 C10.2538086,34.8389178 11.575293,37.2354326 11.575293,37.2354326 C13.8061523,41.0478927 17.4285645,39.945568 18.8506836,39.3060978 C19.0779297,37.6982872 19.7249023,36.5959625 20.4375977,35.9747629 C14.8879883,35.3444524 9.05,33.2037257 9.05,23.6451453 C9.05,20.9197601 10.0250488,18.6968888 11.6210938,16.9505141 C11.3662598,16.3171342 10.5056641,13.7790346 11.8682617,10.3457255 C11.8682617,10.3457255 13.9648438,9.6758044 18.7438477,12.903606 C20.7366211,12.3478882 22.8744141,12.0738296 24.9999512,12.0646699 C27.1239746,12.0738296 29.2632324,12.350909 31.2591309,12.9066268 C36.0290527,9.6758044 38.1286621,10.3487462 38.1286621,10.3487462 C39.4958496,13.7851248 38.6352539,16.3201549 38.3789062,16.9505141 C39.9810547,18.6968888 40.9484863,20.9198088 40.9484863,23.6451453 C40.9484863,33.2280864 35.1013184,35.3383135 29.5318848,35.9564924 C30.4321777,36.7299467 31.2286621,38.2464045 31.2286621,40.5728577 C31.2286621,43.9072621 31.1950684,46.5960574 31.1950684,47.4182333 C31.1950684,48.0820642 31.6497559,48.8585393 32.9162598,48.6149316 C42.8436523,45.311027 50,35.9625826 50,24.9454256 C50,11.1694118 38.8061523,0 25,0 Z" id="Shape"></path>
        </g>
    </g>
</svg>
